<svg width="28" height="28" viewBox="0 0 28 28" fill="none" xmlns="http://www.w3.org/2000/svg">
<path d="M24.1038 18.4245L27.967 6.57077C28.033 6.40568 28 6.20757 27.8679 6.04247C27.7689 5.87738 27.5708 5.81134 27.4057 5.81134H7.13208L5.21698 3.43398C5.11792 3.30191 4.91981 3.20285 4.75472 3.20285H0.59434C0.264151 3.20285 0 3.467 0 3.79719C0 4.12738 0.264151 4.39153 0.59434 4.39153H4.49057L6.33962 6.63681L8.65094 18.3585L9.54245 22.783C9.60849 23.0472 9.83962 23.2453 10.1368 23.2453H11.3255C11.5896 24.1368 12.4151 24.7972 13.3726 24.7972C14.3302 24.7972 15.1557 24.1368 15.4198 23.2453H21.0991C21.3632 24.1368 22.1887 24.7972 23.1462 24.7972C24.3349 24.7972 25.2925 23.8396 25.2925 22.651C25.2925 21.4623 24.3349 20.5047 23.1462 20.5047C22.1557 20.5047 21.3632 21.1651 21.0991 22.0566H15.4198C15.1557 21.1651 14.3302 20.5047 13.3726 20.5047C12.4151 20.5047 11.5896 21.1651 11.3255 22.0566H10.6321L9.9717 18.8208H23.5425C23.8066 18.8208 24.0377 18.6557 24.1038 18.4245ZM23.1462 21.7264C23.6745 21.7264 24.1038 22.1557 24.1038 22.684C24.1038 23.2123 23.6745 23.6415 23.1462 23.6415C22.6179 23.6415 22.1887 23.2123 22.1887 22.684C22.1887 22.1557 22.6179 21.7264 23.1462 21.7264ZM13.3396 21.7264C13.8679 21.7264 14.2972 22.1557 14.2972 22.684C14.2972 23.2123 13.8679 23.6415 13.3396 23.6415C12.8113 23.6415 12.3821 23.2123 12.3821 22.684C12.3821 22.1557 12.8113 21.7264 13.3396 21.7264ZM9.70755 17.6651L7.59434 6.967H26.5472V7.00002L23.0802 17.6651H9.70755Z" fill="#636E72"/>
<path d="M22.9481 9.70755H10.6321C10.3019 9.70755 10.0378 9.9717 10.0378 10.3019C10.0378 10.6321 10.3019 10.8962 10.6321 10.8962H22.9481C23.2783 10.8962 23.5425 10.6321 23.5425 10.3019C23.5425 9.9717 23.2783 9.70755 22.9481 9.70755Z" fill="#636E72"/>
<path d="M21.9245 13.6698H11.6227C11.2925 13.6698 11.0283 13.934 11.0283 14.2641C11.0283 14.5943 11.2925 14.8585 11.6227 14.8585H21.9245C22.2547 14.8585 22.5189 14.5943 22.5189 14.2641C22.5189 13.934 22.2547 13.6698 21.9245 13.6698Z" fill="#636E72"/>
</svg>
