<svg width="38" height="38" viewBox="0 0 38 38" fill="none" xmlns="http://www.w3.org/2000/svg">
<path d="M32.4336 0H5.56641C2.49734 0 0 2.49734 0 5.56641V32.4336C0 35.5027 2.49734 38 5.56641 38H32.4336C35.5027 38 38 35.5027 38 32.4336V5.56641C38 2.49734 35.5027 0 32.4336 0ZM19.0742 28.9453C13.5493 28.9453 9.05469 24.4507 9.05469 18.9258C9.05469 13.4008 13.5493 8.90625 19.0742 8.90625C24.5992 8.90625 29.0938 13.4008 29.0938 18.9258C29.0938 24.4507 24.5992 28.9453 19.0742 28.9453ZM30.207 11.1328C28.3655 11.1328 26.8672 9.63452 26.8672 7.79297C26.8672 5.95142 28.3655 4.45312 30.207 4.45312C32.0486 4.45312 33.5469 5.95142 33.5469 7.79297C33.5469 9.63452 32.0486 11.1328 30.207 11.1328Z" fill="#2D3436"/>
<path d="M30.207 6.67969C29.5927 6.67969 29.0938 7.17863 29.0938 7.79297C29.0938 8.4073 29.5927 8.90625 30.207 8.90625C30.8214 8.90625 31.3203 8.4073 31.3203 7.79297C31.3203 7.17863 30.8214 6.67969 30.207 6.67969Z" fill="#2D3436"/>
<path d="M19.0742 11.1328C14.7776 11.1328 11.2812 14.6292 11.2812 18.9258C11.2812 23.2224 14.7776 26.7188 19.0742 26.7188C23.3708 26.7188 26.8672 23.2224 26.8672 18.9258C26.8672 14.6292 23.3708 11.1328 19.0742 11.1328Z" fill="#2D3436"/>
</svg>
