<svg width="38" height="38" viewBox="0 0 38 38" fill="none" xmlns="http://www.w3.org/2000/svg">
<g clip-path="url(#clip0)">
<path d="M35.9094 2.0903C34.5163 0.696854 32.8379 0 30.8754 0H7.12523C5.16274 0 3.48429 0.696854 2.09058 2.0903C0.69713 3.48401 0.000274658 5.16237 0.000274658 7.12495V30.8748C0.000274658 32.8373 0.69713 34.5158 2.09058 35.9095C3.48429 37.3032 5.16274 38.0001 7.12523 38.0001H30.8751C32.8376 38.0001 34.5161 37.3032 35.9092 35.9095C37.3029 34.5158 37.9998 32.8373 37.9998 30.8748V7.12495C37.9997 5.16237 37.3028 3.48375 35.9094 2.0903ZM29.0692 14.6212C29.0858 14.7696 29.0942 14.9919 29.0942 15.2893C29.0942 16.6748 28.8919 18.0643 28.4881 19.4576C28.0842 20.8516 27.4656 22.1875 26.6323 23.4656C25.7999 24.7436 24.8062 25.8737 23.6518 26.855C22.4972 27.8359 21.112 28.6196 19.4953 29.2047C17.8794 29.7907 16.1473 30.0836 14.3003 30.0836C11.4307 30.0836 8.77534 29.3079 6.33427 27.7582C6.7301 27.8075 7.14265 27.8323 7.57123 27.8323C9.96282 27.8323 12.1152 27.0902 14.0284 25.6054C12.9071 25.5893 11.905 25.2433 11.0227 24.5663C10.1401 23.8902 9.52592 23.0327 9.17949 21.9935C9.60816 22.0594 9.92972 22.0921 10.1441 22.0921C10.5069 22.0921 10.9276 22.0262 11.4057 21.8946C10.2018 21.6633 9.18763 21.066 8.36297 20.1012C7.53813 19.1362 7.12584 18.0354 7.12584 16.7985V16.749C7.99972 17.1611 8.82439 17.3754 9.59966 17.3922C8.09877 16.3859 7.34836 14.9429 7.34836 13.0628C7.34836 12.1391 7.58735 11.265 8.06566 10.4403C9.36848 12.0403 10.9521 13.3183 12.8156 14.2749C14.6792 15.2313 16.6751 15.7676 18.8025 15.8829C18.7202 15.5696 18.6789 15.1736 18.6789 14.6955C18.6789 13.2603 19.1861 12.0359 20.2005 11.0215C21.2146 10.0072 22.4393 9.49982 23.874 9.49982C25.3917 9.49982 26.6537 10.0443 27.6597 11.1329C28.7977 10.9185 29.9033 10.4977 30.975 9.87121C30.5628 11.1408 29.7954 12.1058 28.6744 12.7656C29.7461 12.6169 30.7436 12.3366 31.6671 11.9243C30.9744 12.9798 30.1083 13.8787 29.0692 14.6212Z" fill="#2D3436"/>
</g>
<defs>
<clipPath id="clip0">
<rect width="38" height="38" fill="white"/>
</clipPath>
</defs>
</svg>
